Coordinates
version=1
nRows=25
nColumns=24
inDegrees=no

Units are S.I. units (second, meters, Newtons, ...)
If the header above contains a line with 'inDegrees', this indicates whether rotational values are in degrees (yes) or radians (no).

endheader
time	pelvis_tilt	pelvis_list	pelvis_rotation	pelvis_tx	pelvis_ty	pelvis_tz	hip_flexion_r	hip_adduction_r	hip_rotation_r	knee_angle_r	ankle_angle_r	subtalar_angle_r	mtp_angle_r	hip_flexion_l	hip_adduction_l	hip_rotation_l	knee_angle_l	ankle_angle_l	subtalar_angle_l	mtp_angle_l	lumbar_extension	lumbar_bending	lumbar_rotation
25.01	0.414191	-0.0186028	-0.044317	0.799268	1.08761	0.52552	0.0185888	-0.0815015	-0.147276	0.533688	-0.0177155	-0.0822974	-0.000753333	-0.545281	-0.0155723	-0.243352	0.148345	0.186727	-0.114159	-0.00212676	-0.645373	-0.0298711	-0.118526
25.02	0.405839	-0.0189711	-0.0432837	0.798115	1.08549	0.525665	0.0243879	-0.0767009	-0.141814	0.472148	-0.012713	-0.0588309	-0.000753333	-0.54542	-0.0172737	-0.243401	0.156846	0.194615	-0.117573	-0.00212676	-0.640854	-0.0259206	-0.120009
25.03	0.397887	-0.0197168	-0.0416236	0.797174	1.08327	0.525871	0.0279916	-0.0715489	-0.134886	0.411197	-0.00840388	-0.0331224	-0.000753333	-0.545122	-0.0201154	-0.244973	0.168097	0.204154	-0.119456	-0.00212676	-0.636345	-0.0212203	-0.121404
25.04	0.391705	-0.0211104	-0.0392852	0.796405	1.08108	0.526128	0.0283544	-0.0660402	-0.127181	0.352821	-0.00460887	-0.00837493	-0.000753333	-0.545206	-0.0239043	-0.246373	0.179063	0.213982	-0.121108	-0.00212676	-0.632771	-0.0155124	-0.123341
25.05	0.385651	-0.0227308	-0.034708	0.795848	1.07879	0.526347	0.0274039	-0.0605792	-0.120866	0.298215	-0.000730108	0.0128981	-0.000753333	-0.545234	-0.0290819	-0.244794	0.189869	0.222509	-0.124747	-0.00212676	-0.629185	-0.00838703	-0.12696
25.06	0.380031	-0.0247801	-0.0275198	0.795546	1.07645	0.526558	0.024963	-0.0549776	-0.118367	0.248802	0.00375014	0.0293344	-0.000753333	-0.545207	-0.0363697	-0.241826	0.202428	0.230165	-0.129752	-0.00212676	-0.625732	0.000272682	-0.132073
25.07	0.375794	-0.0275306	-0.0185853	0.795483	1.07417	0.526888	0.0206322	-0.048897	-0.121424	0.206455	0.00895397	0.0412754	-0.000753333	-0.545212	-0.0459544	-0.240457	0.218118	0.238434	-0.133985	-0.00212676	-0.622953	0.0099756	-0.137899
25.08	0.372542	-0.0310799	-0.00841329	0.795667	1.07192	0.527386	0.0157919	-0.0421668	-0.130999	0.173256	0.0142833	0.0501945	-0.000753333	-0.545216	-0.0577101	-0.240886	0.236288	0.247953	-0.136886	-0.00212676	-0.620363	0.0205346	-0.144066
25.09	0.369767	-0.0358156	0.00260769	0.796116	1.06968	0.528034	0.0118838	-0.0344884	-0.145912	0.151078	0.0176738	0.0567689	-0.000753333	-0.545214	-0.0716634	-0.242427	0.255922	0.258222	-0.138904	-0.00212676	-0.617339	0.0322854	-0.149886
25.1	0.367379	-0.0419599	0.0135457	0.796819	1.06744	0.528853	0.00952692	-0.0257888	-0.162836	0.140973	0.0158639	0.0604602	-0.000753333	-0.545215	-0.0874687	-0.2446	0.276875	0.267457	-0.140813	-0.00212676	-0.613824	0.0451415	-0.154303
25.11	0.365401	-0.0489256	0.0235529	0.797732	1.06524	0.529881	0.00873982	-0.0167691	-0.179109	0.143077	0.00596939	0.0600927	-0.000753333	-0.545216	-0.103964	-0.245998	0.298974	0.2732	-0.144589	-0.00212676	-0.61014	0.0582287	-0.157213
25.12	0.363927	-0.0556396	0.0323501	0.798831	1.06309	0.531139	0.00910159	-0.00864158	-0.193705	0.156448	-0.0124327	0.0553854	-0.000753333	-0.545213	-0.119831	-0.24535	0.322158	0.274189	-0.1522	-0.00212676	-0.606567	0.0703855	-0.159498
25.13	0.363095	-0.0616127	0.0397738	0.800134	1.06101	0.532648	0.0100538	-0.00196768	-0.205936	0.17822	-0.036061	0.0474785	-0.000753333	-0.545218	-0.134613	-0.243056	0.346995	0.270707	-0.163347	-0.00212676	-0.603041	0.0809925	-0.161489
25.14	0.362969	-0.0675314	0.0457415	0.801633	1.05901	0.534407	0.0112175	0.00415924	-0.215399	0.203789	-0.0600817	0.0362296	-0.000753333	-0.545226	-0.148901	-0.239719	0.373821	0.262818	-0.176916	-0.00212676	-0.599438	0.0906773	-0.162601
25.15	0.363638	-0.0744864	0.0504706	0.803298	1.05718	0.536361	0.0120074	0.0113817	-0.221212	0.22891	-0.082039	0.0188045	-0.000753333	-0.545192	-0.163474	-0.234915	0.402392	0.249227	-0.193433	-0.00212676	-0.595935	0.100835	-0.162304
25.16	0.365564	-0.0830188	0.0540171	0.805124	1.05568	0.538477	0.0113241	0.0209021	-0.220773	0.252301	-0.100092	-0.00667605	-0.000753333	-0.545229	-0.17861	-0.228825	0.432843	0.228362	-0.213739	-0.00212676	-0.593167	0.112325	-0.160426
25.17	0.369322	-0.0931602	0.0560483	0.807041	1.05466	0.540791	0.00877125	0.0330064	-0.213321	0.276427	-0.108653	-0.0363774	-0.000753333	-0.54535	-0.194305	-0.223005	0.466073	0.199713	-0.237401	-0.00212676	-0.592205	0.12505	-0.156677
25.18	0.374813	-0.10457	0.0564697	0.808909	1.05419	0.543328	0.00517366	0.046721	-0.203976	0.304226	-0.103534	-0.0617814	-0.000753333	-0.544949	-0.210612	-0.218975	0.503201	0.163554	-0.263476	-0.00212676	-0.59363	0.138394	-0.150873
25.19	0.382962	-0.116456	0.0556382	0.810739	1.05434	0.546017	-0.000965377	0.0601459	-0.199387	0.335217	-0.0884153	-0.0765433	-0.000753333	-0.545105	-0.226993	-0.21681	0.543379	0.119212	-0.29079	-0.00212676	-0.597967	0.151456	-0.143397
25.2	0.394825	-0.127633	0.0540576	0.812623	1.0552	0.54877	-0.0126116	0.0715764	-0.201326	0.365766	-0.0690017	-0.0794147	-0.000753333	-0.546875	-0.242319	-0.215403	0.584688	0.0633879	-0.319258	-0.00212676	-0.605322	0.163031	-0.13501
25.21	0.405075	-0.136815	0.0524592	0.814354	1.05631	0.551601	-0.0255595	0.0803083	-0.207105	0.391343	-0.0474165	-0.0726133	-0.000753333	-0.542759	-0.256997	-0.214626	0.630476	-0.00545857	-0.35271	-0.00212676	-0.611464	0.172048	-0.126722
25.22	0.407671	-0.143629	0.0514823	0.815615	1.05709	0.554562	-0.0338165	0.0874024	-0.212405	0.408886	-0.0257432	-0.0627359	-0.000753333	-0.524274	-0.272491	-0.214804	0.685411	-0.0792063	-0.391387	-0.00212676	-0.612075	0.17841	-0.119293
25.23	0.4068	-0.148654	0.0513481	0.816425	1.05778	0.557589	-0.0419094	0.0947761	-0.213752	0.418159	-0.00692214	-0.0576501	-0.000753333	-0.496558	-0.288094	-0.213829	0.746099	-0.14496	-0.421545	-0.00212676	-0.610543	0.182723	-0.112845
25.24	0.408321	-0.151998	0.0523628	0.816945	1.05877	0.560521	-0.0558895	0.102684	-0.211098	0.420364	0.00829295	-0.0593739	-0.000753333	-0.468045	-0.301661	-0.208793	0.806737	-0.197543	-0.431699	-0.00212676	-0.611354	0.185265	-0.107521
25.25	0.411015	-0.153345	0.0549953	0.81719	1.05991	0.563209	-0.0735794	0.109901	-0.206934	0.417185	0.0209337	-0.065066	-0.000753333	-0.438661	-0.312088	-0.198689	0.865245	-0.237583	-0.430514	-0.00212676	-0.613331	0.186223	-0.10369
